<?xml version="1.0" encoding="utf-8"?>
<!-- Generator: Adobe Illustrator 17.0.0, SVG Export Plug-In . SVG Version: 6.00 Build 0)  -->
<!DOCTYPE svg PUBLIC "-//W3C//DTD SVG 1.1//EN" "http://www.w3.org/Graphics/SVG/1.1/DTD/svg11.dtd">
<svg version="1.1" id="Layer_1" xmlns="http://www.w3.org/2000/svg" xmlns:xlink="http://www.w3.org/1999/xlink" x="0px" y="0px"
	 width="1058.062px" height="529.474px" viewBox="0 0 1058.062 529.474" enable-background="new 0 0 1058.062 529.474"
	 xml:space="preserve">
<polygon display="none" fill="#FFFFFF" stroke="#000000" stroke-miterlimit="10" points="81.581,262.896 272.5,71.978 
	272.5,453.815 "/>
<g>
	<g>
		<path d="M251.287,51.764c-31.046,31.277-62.092,62.555-93.139,93.832c-32.413,32.654-64.825,65.308-97.238,97.962
			c-0.041,0.042-0.082,0.083-0.124,0.125c-11.507,11.593-11.6,30.846,0,42.426c31.278,31.224,62.557,62.448,93.835,93.672
			c32.203,32.147,64.406,64.294,96.609,96.441c0.019,0.019,0.037,0.037,0.056,0.056c11.568,11.548,30.861,11.566,42.426,0
			c11.551-11.551,11.568-30.878,0-42.426c-31.278-31.224-62.557-62.448-93.835-93.672c-32.203-32.147-64.406-64.294-96.609-96.441
			c-0.019-0.019-0.037-0.037-0.056-0.056C96.142,260.754,89.071,277.825,82,294.896c17.491,0,34.981,0,52.472,0
			c44.971,0,89.942,0,134.913,0c61.201,0,122.401,0,183.602,0c66.179,0,132.359,0,198.538,0c59.907,0,119.814,0,179.721,0
			c42.383,0,84.767,0,127.15,0c13.868,0,27.736,0,41.604,0c16.354,0,30-13.646,30-30s-13.646-30-30-30c-17.491,0-34.981,0-52.472,0
			c-44.971,0-89.942,0-134.913,0c-61.201,0-122.401,0-183.602,0c-66.179,0-132.359,0-198.538,0c-59.907,0-119.814,0-179.721,0
			c-42.383,0-84.767,0-127.15,0c-13.868,0-27.736,0-41.604,0c-26.151,0-39.748,32.711-21.213,51.213
			c31.278,31.224,62.557,62.448,93.835,93.672c32.203,32.147,64.406,64.294,96.609,96.441c0.019,0.019,0.037,0.037,0.056,0.056
			c11.568,11.548,30.861,11.566,42.426,0c11.551-11.551,11.568-30.878,0-42.426c-31.278-31.224-62.557-62.448-93.835-93.672
			c-32.203-32.147-64.406-64.294-96.609-96.441c-0.019-0.019-0.037-0.037-0.056-0.056c0,14.142,0,28.284,0,42.426
			c31.046-31.277,62.092-62.555,93.139-93.832c32.413-32.654,64.825-65.308,97.238-97.962c0.041-0.042,0.082-0.083,0.124-0.125
			c11.515-11.6,11.59-30.836,0-42.426C282.187,40.238,262.802,40.163,251.287,51.764L251.287,51.764z"/>
	</g>
</g>
</svg>
